# xmcd CD database file
#
# Track frame offsets:
#	150
#	23463
#	36248
#	54435
#	63063
#	74975
#	88763
#	111860
#	126425
#	142588
#	156263
#	177220
#	202260
#
# Disc length: 2885 seconds
#
# Revision: 0
# Processed by: cddbd v1.5.2PL0 Copyright (c) Steve Scherf et al.
# Submitted via: CDex 1.51
#
DISCID=b80b430d
DTITLE=Duke Ellington - Big Artist Jazz History
DYEAR=1900
DGENRE=Jazz
TTITLE0=Black and Tan Fantasy
TTITLE1=Caravan
TTITLE2=Creole Love Call
TTITLE3=Do Nothin' Till You Hear From Me
TTITLE4=I Got It Bad (And That Ain't Good)
TTITLE5=It Don't Mean a Thing (If It Ain't Got That Swing)
TTITLE6=Mood Indigo
TTITLE7=Perdido
TTITLE8=Solitude
TTITLE9=Sophisticated Lady
TTITLE10=Take the "A" Train
TTITLE11=The Mooche
TTITLE12=The Twitch
EXTD=
EXTT0=
EXTT1=
EXTT2=
EXTT3=
EXTT4=
EXTT5=
EXTT6=
EXTT7=
EXTT8=
EXTT9=
EXTT10=
EXTT11=
EXTT12=
PLAYORDER=
